<?xml version="1.0" encoding="UTF-8" standalone="no"?>
<!-- Created with Inkscape (http://www.inkscape.org/) -->

<svg
   xmlns:dc="http://purl.org/dc/elements/1.1/"
   xmlns:cc="http://creativecommons.org/ns#"
   xmlns:rdf="http://www.w3.org/1999/02/22-rdf-syntax-ns#"
   xmlns:svg="http://www.w3.org/2000/svg"
   xmlns="http://www.w3.org/2000/svg"
   xmlns:sodipodi="http://sodipodi.sourceforge.net/DTD/sodipodi-0.dtd"
   xmlns:inkscape="http://www.inkscape.org/namespaces/inkscape"
   width="128mm"
   height="128mm"
   viewBox="0 0 128 128"
   version="1.1"
   id="svg8"
   inkscape:version="0.92.4 (5da689c313, 2019-01-14)"
   sodipodi:docname="Covid 19 Emoji.svg">
  <defs
     id="defs2" />
  <sodipodi:namedview
     id="base"
     pagecolor="#ffffff"
     bordercolor="#666666"
     borderopacity="1.0"
     inkscape:pageopacity="0.0"
     inkscape:pageshadow="2"
     inkscape:zoom="0.7"
     inkscape:cx="412.97148"
     inkscape:cy="305.97274"
     inkscape:document-units="mm"
     inkscape:current-layer="layer1"
     showgrid="false"
     inkscape:window-width="1920"
     inkscape:window-height="1017"
     inkscape:window-x="-8"
     inkscape:window-y="-8"
     inkscape:window-maximized="1" />
  <metadata
     id="metadata5">
    <rdf:RDF>
      <cc:Work
         rdf:about="">
        <dc:format>image/svg+xml</dc:format>
        <dc:type
           rdf:resource="http://purl.org/dc/dcmitype/StillImage" />
        <dc:title></dc:title>
      </cc:Work>
    </rdf:RDF>
  </metadata>
  <g
     inkscape:label="Layer 1"
     inkscape:groupmode="layer"
     id="layer1"
     transform="translate(0,-169)">
    <path
       id="path1064"
       style="opacity:1;fill:#8800aa;fill-opacity:1;stroke:none;stroke-width:6.24388742;stroke-linejoin:round;stroke-miterlimit:4;stroke-dasharray:12.48777539, 6.24388749;stroke-dashoffset:0;paint-order:markers stroke fill"
       d="M 92.782546,225.4261 A 29.150462,29.150462 0 0 1 75.598119,262.84196 29.150462,29.150462 0 0 1 38.136056,245.76119 L 65.434329,235.51995 Z M 42.032131,214.81087 a 9.3564946,9.3564946 0 0 1 9.357091,9.35709 9.3564946,9.3564946 0 0 1 -9.357091,9.35832 9.3564946,9.3564946 0 0 1 -9.35834,-9.35832 9.3564946,9.3564946 0 0 1 9.35834,-9.35709 z m 34.305165,-12.33793 a 9.3564946,9.3564946 0 0 1 9.357093,9.3571 9.3564946,9.3564946 0 0 1 -9.357093,9.35708 9.3564946,9.3564946 0 0 1 -9.358337,-9.35708 9.3564946,9.3564946 0 0 1 9.358337,-9.3571 z M 66.32836,170.46428 c -10.316163,1.01151 6.387484,16.73985 -7.72495,18.45066 -15.054004,1.82448 0.137372,-20.21521 -14.274777,-15.48857 -14.408398,4.72662 10.873117,13.48804 -2.336465,20.93451 -13.208319,7.44772 -7.611298,-18.72167 -19.113786,-8.8401 -11.502492,9.88034 15.206363,8.29564 5.853018,20.23021 -9.354592,11.93455 -14.198599,-14.38219 -21.0444009,-0.84918 -6.84579604,13.53049 17.2268889,1.8432 13.1521279,16.44888 -4.074763,14.60696 -18.6192726,-7.85356 -19.765651,7.26666 -1.14887576,15.12018 16.617483,-4.88273 18.443194,10.17005 1.824464,15.05402 -20.20896772,-0.13726 -15.481094,14.27476 4.7266228,14.40839 13.486796,-10.87311 20.933257,2.33646 7.44771,13.20957 -18.7216722,7.61129 -8.840096,19.11381 9.880327,11.50246 8.29563,-15.20638 20.230208,-5.85303 11.935804,9.35459 -14.382183,14.19859 -0.849168,21.0444 13.530505,6.84582 1.843182,-17.22689 16.448885,-13.15211 14.606964,4.07475 -7.853549,18.62051 7.26665,19.7669 15.120198,1.14888 -4.882734,-16.61878 10.170044,-18.44321 15.054001,-1.82571 -0.137372,20.20772 14.274776,15.4811 14.408391,-4.72663 -10.873118,-13.48804 2.336451,-20.93452 13.209582,-7.44646 7.611299,18.72168 19.113797,8.84134 11.50373,-9.88157 -15.206359,-8.29688 -5.853017,-20.23144 9.354597,-11.93456 14.198607,14.38218 21.044407,0.84917 6.84579,-13.53049 -17.22565,-1.8432 -13.15214,-16.44888 4.07478,-14.60572 18.6193,7.85357 19.76691,-7.26665 1.14888,-15.12018 -16.62499,4.88396 -18.4507,-10.17005 -1.82446,-15.05401 20.21522,0.13726 15.4886,-14.27477 -4.72663,-14.40838 -13.48679,10.87312 -20.93451,-2.33645 -7.446473,-13.20834 18.72167,-7.61131 8.84134,-19.11381 -9.88157,-11.50247 -8.29562,15.20763 -20.231452,5.85303 -11.934554,-9.3546 14.382182,-14.19111 0.849168,-21.03817 -13.530505,-6.84578 -1.843183,17.22064 -16.448897,13.14588 -14.605704,-4.07475 7.853561,-18.61926 -7.266638,-19.76688 -0.949069,-0.12481 -1.758265,-0.12481 -2.445091,0 z"
       inkscape:connector-curvature="0" />
  </g>
</svg>
